<?xml version="1.0" encoding="utf-8"?>
<!-- Generator: Adobe Illustrator 23.0.1, SVG Export Plug-In . SVG Version: 6.00 Build 0)  -->
<svg version="1.1" id="Layer_1" xmlns="http://www.w3.org/2000/svg" xmlns:xlink="http://www.w3.org/1999/xlink" x="0px" y="0px"
	 viewBox="0 0 510 210" style="enable-background:new 0 0 510 210;" xml:space="preserve">
<style type="text/css">
	.st0{fill:#FFFFFF;}
</style>
<title>Asset 2</title>
<g>
	<g id="Layer_1-2">
		<path class="st0" d="M0,116.1c1-0.3,1.2-1.1,1.2-2.1c0-1.2-0.5-2.6,0.1-3.4c1.3-1.9,0.9-3.8,1.1-5.8c0.1-0.7,0.5-1.2,1-1.6
			c1.2-0.8,2.6-1.5,3.9-2.3c0.9-0.7,2-0.8,3-0.3c2.3,1.6,4.3-0.2,6.4-0.4c0.7-1.2,2.2-2.1,2-3.6c-0.3-1.9,0.7-3,1.9-4.3
			c2.2-2.3,4.3-4.7,6.5-7c1-1,1.9-2.2,3.7-1.9c0.7,0,1.3-0.3,1.8-0.7c1.3-0.8,2.5-1.8,3.8-2.5c0.6-0.2,1.3-0.2,1.8,0.2
			c0.9,0.9,2.2,0.9,3.1,0.1c1.4-1,3.2-1,4.6,0c1.5,1,3,0.4,4.5,0.5c0.4-0.1,0.7-0.3,0.9-0.7c0.4-1.4,1.7-1.8,2.8-2.2
			c1.6-0.6,2.5-2.4,4.4-2.6c0.4,0,0.9-0.4,1.1-0.3c1.6,1,2.8-0.1,3.9-0.8c1.5-0.9,3.3-1.4,4.1-3.3c0.4-0.6,0.9-1,1.6-1.2
			c2.4-0.7,4.8-1.3,7.2-1.9c0.9-0.2,1.9-0.4,2.8-0.5c1.6-0.2,2.2-1.2,1.2-2.3c-1.2-1.4-0.6-3-0.7-4.4c0-0.4,0.4-0.8,0.7-1.2
			s0.8-0.3,1-0.5c0.8-1.1,1.3-2.3,3.1-2c1.2,0.2,2.5-0.2,3.5,1c0.4,0.5,0.9,0.2,1-0.5c0.2-2.3,1.3-3.4,3.5-4.3
			c2.9-1.2,5.5-3,8.2-4.5c0.6-0.3,1.2-0.3,1.8,0c1,0.8,2.5,1.2,2.5,3.2c0,1,1.2,2.1,1.1,3.4c0,0.2,0.8,0.7,1.1,0.5
			c1.2-0.4,2.2-1,3.2-1.7c0.6-0.6,1-1.4,1.1-2.2c0.3-1.4,1.2-2.7,2.4-3.4c0.8-0.4,1.8-0.5,2.6-0.9c2.2-1.2,4.6-2.3,7-3.1
			c2-0.6,3.5,0.6,5.3,0.7c0.4,0,0.9,1,1.1,1.5c0.6,1.5,0.5,1.4,2,0.6c2.1-1.1,2.7-3.2,3.8-4.8c1.2-2,2.3-4.1,3.2-6.3
			c0.2-0.4,0.6-0.8,1-1c2.3-1.5,4.7-2.9,6.9-4.5c0.8-0.7,1.3-1.5,1.7-2.5c0.9-1.9,1.7-3.8,1.4-6c-0.1-0.9,0.1-1.9,0.5-2.7
			c0.9-2.1,2.4-2.8,4.8-2.8c17.1,0.1,34.2-0.1,51.3,0.2c5.7,0.1,11.5,0.1,17.2,0.5c13.4,1.1,26.7-0.1,40.1,0.6
			c16.1,0.8,32.2,0.3,48.3,0.5c0.7,0,1.3,0.2,2,0.2c1,0.1,2.2,0.5,3.1,0.3c3-0.9,6-0.4,9-0.5c2.4-0.2,4.9-0.2,7.3,0
			c3,0.4,5.2-0.9,7.1-2.8c1.2-1.3,2.8-2.1,4.5-2.4c1.6-0.1,3.2,0.1,4.8,0.7c0.9,0.5,1.8,1.2,2.4,2c0.5,0.5,0.7,1.1,1.2,1.6
			c0.3,0.2,0.6,0.4,0.9,0.5c0.1-0.3,0.1-0.6,0.2-0.8c0-2.6,0-5.3,0-7.9c0-0.7,0-1.4,0-2s0.5-0.8,1-0.6c0.8,0.3,1.6,0.7,2.4,1.1
			c6.4,3,12.8,6,19.2,9c3.1,1.5,3.2,1.4,3.2-1.9c0-2,0-4.1,0-6.1c0-0.9-0.2-1.8,1.2-1.8s1.1,1.1,1.1,1.9c0,2.6,0,5.3,0,7.9
			c0,1.4,0.1,1.5,1.5,0.9c1.2-0.5,2.3-1.3,3.3-2.1c1.3-1.2,2.8-2,4.6-2.4c1.6-0.2,3.2,0.1,4.7,0.7c1.1,0.6,2.1,1.4,2.8,2.5
			c1.3,1.5,1.2,1.5,3.1,1.1c0.8-0.2,1.7-0.3,2.6-0.3c7.3-0.2,14.6-0.5,21.9-0.6c15.1-0.1,30.3,0,45.5,0c1.2,0.1,2.5-0.2,3.6-0.8
			c1.9-1.3,4.2-0.2,5.2,1.8c0.6,1.3,1,2.6,1.2,4c0.3,1.7,1.2,3.3,1.9,4.9c0.5,1.4,0.3,3.1,1.5,4.2c0.7,3.5,1.7,6.9,2.8,10.2
			c0.8,2.8,2,5.5,3.5,7.9c3.9,5.9,7.3,12.1,10.3,18.5c1.2,2.8,1.8,6,3.9,8.4c-0.1,1.4,0.8,2.5,1.1,3.7c0.3,1.4,1.2,2,1.9,2.9v3.5
			c-0.2,0.5-0.4,1-0.6,1.5c0,0.8-0.2,1.5-0.5,2.2c-0.6,1.2-0.9,2.6-0.7,3.9c0.1,1.8,0,3.7-0.2,5.5c-0.7,2.8-1,5.7-1,8.5
			c0,0.8,0,1.6,0,2.3c0,1-0.7,1.9-1.6,2.1c-1.3,0.2-2.7,0.6-3.9-0.5c-0.4-0.4-0.7-0.3-1.2,0c-1.7,1-3.5,1.8-5.4,2.3
			c-1.3,0.2-2.6,0.7-3.8,1.3c-3.7,2.1-7.4,4.2-11.1,6.4c-1.5,0.9-2.4,2.5-4.3,2.8c-0.4,1.5-1.8,2-2.8,2.7c-2.2,1.4-4.2,3.2-5.8,5.2
			c-0.9,1.1-2.2,1.8-3.3,2.8c-1.4,1.2-2.6,2.5-3.7,4c-1.2,2-2.3,4.2-4,5.9c-1.4,1.4-2.7,3-3.8,4.7c-1.5,2.4-3.1,4.6-4.9,6.7
			c-2,2.3-4.7,1.5-5.6-1.5c-0.1-0.4-0.1-0.9-0.3-1.1c-1.7-0.9-3.3-2.5-5.3-2.5c-3.7,0.1-7.6-0.8-11.2,1c-0.5,0.2-1,0.2-1.4,0.1
			c-1.3-0.1-2.5,0.4-3.3,1.3c-2.1,1.9-4.5,2.6-7.2,1.5c-0.6-0.2-1.3-0.4-1.9-0.5c-0.2,0-0.5,0.2-0.8,0.3c0.3,0.1,0.5,0.2,0.8,0.3
			c0.2,0.1,0.3,0.2,0.5,0.4c-1.1,0.3-0.5,1.1-0.2,1.5c1.5,1.9,1.9,4.6,3.7,6.3c0.6,0.7,0.6,1.7-0.1,2.4c-0.7,0.8-1.9,0.8-2.7,0.1
			c-0.1-0.1-0.3-0.3-0.4-0.4l-3.8-3.8c-0.9-0.9-1.8-1.8-2.7-2.6c-0.2-0.2-0.5-0.2-0.8-0.1c-0.2,0.2-0.3,0.5-0.3,0.8
			c0,0.5,0.1,1,0.3,1.4c1.3,2.3,2.6,4.6,3.9,6.9c0.6,1,0.7,2.6,0.1,2.9c-1,0.3-2.1,0.1-3-0.5c-0.4-0.3-0.7-0.6-1-1
			c-1.6-1.9-3.8-2.9-5.8-4.1c-0.4-0.2-0.9-0.4-1.3-0.5c-0.1,0-0.5,0.5-0.4,0.6c0.2,0.5,0.5,1,0.9,1.5c2,2.2,3.1,4.9,4.4,7.4
			c0.2,0.5,0.2,0.9,0.1,1.4c0,0.2-0.3,0.6-0.4,0.6c-1.1,0-2.3,0.4-3.3-0.5c-2-1.7-4-3.3-6.1-4.9c-0.2-0.2-0.7-0.1-1-0.2
			c0,0.3,0,0.8,0.1,1c1,1.1,2.4,2,2,3.9c-0.1,0.3,0.4,0.9,0.7,1.2c1.1,0.8,1,2,1,3.2c0,0.7-0.4,1-1.1,1c-1.9,0.1-3-1.1-4.2-2.1
			c-1.8-1.6-3.6-3.1-5.5-4.5c-0.3-0.2-1-0.3-1.4-0.7c-0.1,0.4-0.1,0.7-0.2,1.1c0,1.3,0.2,2.7-1.4,3.4c-0.3,0.1-0.3,0.9-0.3,1.3
			c0,1.1,0.1,2.1-0.1,3.2c-0.4,3.2-1.3,6.1-4.9,7.1c-1,0.3-1.8,1.1-2.1,2.1c-0.8,2.1-1.8,4.2-2.7,6.2c-0.8,1.9-2.2,3.7-2.4,5.6
			c-0.2,2.2-1.2,4-1.9,5.9h-4.1c-1.2-1.3-2.4-2.6-3.7-3.8c-0.4-0.2-0.9-0.3-1.4-0.3c-4.8,0-9.6,0-14.4,0c-0.7,0.1-1.3,0.2-1.9,0.5
			c-0.3,0.1-0.5,0.5-0.7,0.5c-3.2-0.1-6.1,1.7-9.2,1.7c-1.3,0.1-2.5-0.4-3.4-1.3c-0.4-0.4-0.8-0.8-1.2-1.2c-20.1-20-40.2-40-60.4-60
			c-1.2-1.4-3-2.1-4.8-2c-17.5,0.1-35,0-52.5,0c-1.3,0-2.6,0.2-3.9-0.9c-0.6-0.5-1.9-0.2-2.8-0.3c-1.9-0.1-2.2-0.3-2.2-2.2
			c-0.1-1.1-0.1-2.1,0-3.2c0.6-3.1-0.9-5.6-2.6-7.9c-0.9-1.2-1.9-2.4-2.9-3.6s-1.3-1.2-2.6-0.4c-0.8,0.5-1.6,1.1-2.3,1.7
			c-0.9,0.7-2.1,0.6-2.9-0.3c-1.4-1.1-2.2-2.8-2-4.5c0.2-3.5,0-3.5-3.5-3.5c-4.2,0-8.4,0-12.6,0c-1.1,0-2.3,0.2-3.3-0.8
			c-0.4-0.4-1.5-0.3-2.2-0.3c-5.1,0-10.2,0-15.3,0c-1.1,0-2.1,0.1-3-0.8c-0.4-0.4-1.4-0.4-2.2-0.4c-4.9,0-9.8,0-14.7,0
			c-1,0-2.1-0.2-3-0.7c-1.3-0.6-3.3-0.8-4.4-0.2c-2.1,1.2-4.1,1-6.1,0.6c-0.7-0.2-1-0.2-1.3,0.5s-1.1,1-1.9,1
			c-1.7,0-3.5-0.3-5.2,0.5c-0.4,0.2-1.1-0.2-1.7-0.2c-1.2-0.1-2.5-0.2-3.8-0.2c-0.3,0-0.8,0.5-0.8,0.8c-0.3,2.3-2,3.2-3.9,3.7
			c-1.7,0.3-3.4,0.5-5.1,0.6c-1.9,0.2-3.9-0.6-5.5,1.1c-0.3,0.3-0.9,0.1-1.4,0.1c-1.2,0-2.4-0.1-3.6,0.8c-0.6,0.5-1.9,0.4-2.8,0.3
			c-1-0.2-1.9,0.5-2.1,1.4c-0.1,0.2-0.1,0.4-0.2,0.5c-0.7,3.2-3.2,4.7-6.1,4.9c-2.9,0.2-5.6-1.3-7.1-3.7c-0.4-0.7-0.9-1.3-1.4-1.8
			c-0.3-0.4-0.9-0.6-1.4-0.2c-0.3,0.2-0.5,0.7-0.4,1.1c0,1.5,0,2.9,0,4.4c0,0.7,0,1.4,0,2c0,1-0.5,1.7-1.6,1.8s-1.6-0.5-1.7-1.9
			c0-0.4,0-0.8,0-1.2v-19c0-0.6,0-1.2,0.1-1.8c0.1-0.8,0.8-1.4,1.6-1.3c0,0,0,0,0.1,0c0.8-0.1,1.5,0.4,1.6,1.2c0,0.1,0,0.1,0,0.2
			c0.1,2,0,4.1,0.1,6.1c0,1.8,0,1.7,1.8,1.8c1.5,0.2,3.1-0.2,4.3-1.2c1.8-1.7,4.4-2.1,6.7-1.1c1,0.2,1.9,0.5,2.9,0.8
			c1.1,0.5,2.3,0.6,3.4,0.2c3.1-1.5,6.6-1.1,9.7-2.6c0.7-0.2,1.5-0.3,2.3-0.1c1,0.1,2.1,0.6,2.8,0.3c0.5-0.3,0.2-1.8,0.5-2.6
			c0.3-0.6,0.8-1,1.4-1.1c1.3-0.1,2.5-0.1,3.5-1c0.4-0.4,1.3-0.1,2-0.2c0.7-0.1,1.4-0.3,2.1-0.7c1.5-0.8,3.2-0.8,4.7,0.1
			c0.6,0.3,1.2,0.5,1.9,0.5c1.1,0,0.6-1,0.8-1.6c0.2-0.8,0.9-1.3,1.7-1.3c1.7-0.1,3.5,0.1,5.1,0.7c0.4,0.2,1,0.3,1.3,0.2
			c1.7-1.4,3.6-1,5.5-0.5s2.2,0.3,2.2-1.6c0-5.7,0-11.5,0-17.2c0-0.7,0-1.3,0-2c0.1-1.2,1-2.1,2.3-2.2c0.8-0.1,1.6,0,2.3,0h281.4
			c0.7-0.1,1.4-0.1,2,0c0.6,0.1,1.6,0.4,1.7,0.8c0.5,1.8,2.1,2.3,3.5,2.7c1.7,0.5,3.2,1.6,5,1.8c1.1,0.2,2.2,0.6,3.2,1.1
			c1.7,0.8,3.9,0,5.5,1.4c0,0,0.5-0.2,0.5-0.3c0-0.7,0-1.3,0.1-2c0.1-0.4,0.5-1.1,0.7-1.1c1.8,0.1,3-1.8,4.9-1.4
			c0.5,0.1,1.1-0.3,1.6-0.5c0.7-0.3,1.4-0.5,2.1-0.6c1-0.1,2.1,0.1,3-0.9s1.8,0.1,2.6,0.4c1.4,0.3,2.3,1.6,2.1,3
			c-0.1,1.3-0.2,2.5-1.7,2.9c-0.5,0.2-1,0.6-1.4,1c-0.1,0.2-0.1,0.4,0,0.6c0.2,0.2,0.4,0.2,0.7,0.2c0.2,0,0.3-0.2,0.4-0.4
			c1.6-1.3,2.3-1.5,3.8-0.4c1,0.9,2.4,1.4,3.7,1.3c1.1-0.1,2.4,1,3.5,1.6c6.4,3.7,4.5,3.1,10.2-0.8c1.2-0.8,2-2.2,2-3.7
			c0.2-1.9,1.1-3.7,2.4-5.1c1.3-1.3,2.3-3.1,3.6-4.4c2.1-2.1,4-2.3,6.7-0.9c0.3,0.2,0.9,0.2,1,0c0.2-0.3,0.2-0.7,0.1-1.1
			c-0.5-1-1.2-2-1.7-3c-1.1-2.3-0.5-3.7,2.1-4.4c1-0.3,1.1-0.8,0.7-1.5c-1.1-1.8-1.9-3.9-2.3-6c-0.2-0.8-0.7-1.6-1.3-2.2
			c-0.5-0.5-1.3-0.5-1.8,0.1c-0.2,0.2-0.3,0.4-0.3,0.7c0,0.9-0.6,1.7-1.4,2c-2,1-2.4,3.1-2.7,5.1c-0.3,1.6-0.1,3.1-1,4.7
			c-0.7,1.2-0.4,2.8-1.3,4.3c-1.3,2.1-1.5,2.5-3.7,2.3c-1-0.1-2.6-1.9-2.8-3.3c-0.1-0.3-0.1-0.6,0-0.9c0.2-1.4-0.4-2.8-1.5-3.5
			c-0.9-0.6-1.5-1.6-1.5-2.7c0-1.3,0.2-2.2,1.6-2.7c0.8-0.3,1.4-1,1.6-1.8c0.3-0.9,0.3-1.4-0.4-2c-0.8-0.8-1.8-1.5-1.6-2.9
			c0.1-0.5-0.3-0.5-0.7-0.3c-2.1,1-4.5,0.6-6.6,1.7c-1.5,0.8-3.6,0.6-5.4,0.8c-0.6,0-1.4,0.1-1.7-0.2c-1.1-1.5-2.4-0.6-3.4-0.2
			c-1.9,0.8-3.9,1.1-5.9,1c-1.4-0.1-2.9,0.3-4.1,1.1c-1.4,1-2.9,1.8-4.4,2.5c-1.4,0.4-2.8,0.5-4.3,0.3c-0.4,0-0.9-1-1-1.5
			c-0.4-2.3,0-4.1,1.7-6.7c0.6-0.7,0.6-1.8-0.1-2.5c-1.3-1.8-1.9-4-1.8-6.1c0.2-3.3,0.2-6.6,0-9.9c-0.1-1.6,0.8-2.7,1.6-3.9
			s4.1-0.9,4.7,0.2s1.5,2.4,1.4,4c-0.1,1.2-0.2,2.5,0.9,3.5c0.4,0.3,0.3,1.3,0.3,1.9c-0.2,1.1,0.3,2.2,1.1,2.8
			c0.3,0.4,0.8,0.7,1.3,0.8c1.2,0.2,2.6-0.3,3.5,0.9c0.1,0.1,0.5,0,0.7-0.1c0.9-0.7,1.8-1.4,2.8-2.1s1.2-1.3,0-1.8
			c-2-0.8-1.7-2.3-1.7-3.8s1.2-2.1,2.4-2.6c0.6-0.2,1.3-0.2,1.9,0c2.7,1.2,5.3,2.5,7.9,3.8c0.7,0.6,1.7,0.5,2.3-0.2
			c0.9-0.9,1.6-2,3.2-1.7c0,0,0.3-0.4,0.2-0.6c-0.3-0.7-0.8-1.3-1.3-1.9c-1.4-1.4-1.5-3.1-1.2-4.9c0.4-1.6,2-2.6,3.6-2.2
			c0.3,0.1,0.5,0.2,0.8,0.3c1.9,1.4,3.8,3,5.7,4.4c0.2,0.2,0.5,0.3,0.7,0.5c0.2-0.3,0.3-0.7,0.3-1c-0.1-1.5,0.1-2.6,1.8-3.2
			c0.3-0.1,0.5-0.8,0.6-1.2c0.2-2,0.2-3.8-1.7-5.2c-1.3-0.9-2.4-1.9-3.5-3c-0.7-0.7-1.3-1.4-1.8-2.2c-0.4-1-1.4-1.6-2.4-1.5
			c-9.9,0.1-19.8-0.4-29.6,0.2c-10.1,0.6-20.3,0.1-30.4,0.5c-0.7,0.1-1.4,0.1-2,0c-1.5-0.2-2.9-0.5-3.2,1.6
			c-2.6,3.2-6.7,4.1-10.8,1.1c-0.5-0.3-0.9-0.7-1.3-1.2c-0.5-0.6-1.2-1-2-0.9c-1,0-1.6,0.2-1.6,1.4c0.1,1.8,0,3.7,0,5.5
			c0,0.6,0,1.2-0.9,1.2s-1.5-0.1-1.5-1.2c0-2.3,0-4.7,0-7c0-3,0-3.1-2.9-1.7c-5.9,2.8-11.7,5.5-17.6,8.3c-0.8,0.4-1.6,0.8-2.4,1.1
			c-2.7,1.1-2.9,0.9-2.9-2c0-0.9,0-1.8,0-2.6c0-1,0.5-2.5-1.4-2.5c0-0.2,0.1-0.5,0.1-0.7c0.1-0.8-0.3-0.8-0.8-0.5
			c-0.3,0.2-0.6,0.5-0.8,0.8c-1.7,4.3-7.5,5-11,2c-1.3-1.1-3-1.7-4.7-1.6c-21,0-42.1,0.1-63.1,0c-11.1,0-22.2,0.1-33.3-0.7
			c-10.6-0.7-21.3-0.2-31.9-0.5c-15.9-0.4-31.8-0.8-47.7-0.6H159c-2.5,0-2.3-0.1-2.4,2.4c0,1.2,0.3,2.5-0.9,3.5
			c-0.3,0.3-0.3,1.1-0.3,1.6c0,1.1,0,2.1,0,3.2c0,3-1.6,4.4-4.5,3.5c-0.8-0.3-1.7-0.2-2.4,0.3c-2.6,1.6-4.9,3.3-5.8,6.3
			c-0.4,0.9-1,1.6-1.7,2.3c-0.2,0.3-0.7,0.6-0.7,0.9c0.1,2.3-1.8,3.3-3.1,4.7c-1.8,1.5-4.1,2.4-6.4,2.7c-0.5,0-1,0-1.5,0
			c-1.6,0.3-3.2-0.3-4.1-1.7c-0.9-1.3-2-1.2-3.2-0.7c-1.1,0.5-2.2,1-3.3,1.6c-0.6,0.3-1,0.8-1.3,1.4c-0.7,2.8-3.1,4.1-5.2,5.5
			c-1.6,0.9-3.2,1.6-4.9,2.2c-0.4,0.2-0.9,0.3-1.4,0.4c-2.8,0-5.5-1.3-7.2-3.5c-0.3-0.4-0.2-1.1-0.3-1.7s-0.7-0.4-0.9,0.2
			s-0.3,1.1-0.6,1.6c-1.2,2.4-3.4,3.8-5.6,5.2c-0.7,0.5-1.6,0.6-2.4,0.4c-1.7-0.8-1.6,0.2-1.6,1.2c0.1,0.9-0.1,1.8-0.7,2.5
			c-0.4,0.4-0.3,1.3-0.4,1.9c-0.6,4.2-2.6,4.6-5.8,3.7c-1.2-0.3-2.2-1.1-3.3,0.2c-0.2,0.2-0.8,0.2-1.1,0.2c-2.5-0.5-3.7,1.2-5,2.8
			c-0.4,0.6-1,1-1.6,1.4c-2.4,0.9-4.7,1.9-7,3.1c-1.3,0.5-2.6,1-4,1.3c-1.7,0.6-3.2,1.1-4.1,2.8c-0.3,0.5-0.8,0.8-1.4,0.8
			C50,87.3,47.1,88,44.2,87c-0.5,0-0.9,0-1.4,0.1c-0.8,0.2-1.5,0.3-2.3,0.3c-1.7,0-3.3,0-4.4,1.6c-0.4,0.5-1.1,0.8-1.8,0.7
			c-1.8-0.3-2.8,0.6-3.8,1.9c-0.2,0.3-0.5,0.6-0.8,0.8c-3,1.4-3.7,4.4-4.8,7.1c-0.2,0.6-0.4,1.3-0.4,1.9c-0.1,1.5-1,2.8-2.3,3.4
			c-2.1,1.1-4.3,2.1-6.5,2.8c-1.5,0.4-3.3,0.1-5,0.1s-1.7,0.1-2.1,1.8c-0.6,2.3-1.4,4.6-1.2,7c0.1,1.2,0.3,1.6,1.6,1.7
			c1.9,0.4,3.9-0.2,5.3-1.6c3.1-3,9.4-2,11.2,1.3c0.2,0.3,0.4,0.6,0.7,0.8c0.6,0.3,1.4,0.1,1.7-0.5c0.1-0.1,0.1-0.3,0.1-0.5
			c0-0.6,0-1.2,0-1.8v-9.9c0-0.5,0-1,0-1.5c0.1-1.4,0.9-2.6,1.8-2.6s1.7,1.2,1.8,2.6c0,0.6,0,1.2,0,1.8v30.3c0,0.7,0,1.4,0,2
			c-0.1,1.2-1.1,2.4-1.8,2.2c-1-0.2-1.7-1.1-1.7-2.1v-11.7c0-1,0.2-1.9-1.4-2c-1.1-0.1-1.8-0.2-2.2,1.1c-0.5,1.4-1.6,2.4-3,2.9
			c-3.2,1.5-7,0.5-9.1-2.3c-0.7-1.1-2.1-1.7-3.4-1.5c-0.7,0.1-1.4-0.1-2.1,0c-2.5,0.4-5.1-0.2-7.1-1.8L0,116.1z M271.5,90.4H134.2
			c-0.7,0-1.4,0-2.1,0c-1.8,0-1.8,0-1.8,1.7c0,5.4,0,10.9,0,16.3c0,2.1,0.3,2.3,2.4,2.3c3.8,0,7.6,0,11.4,0c0.7-0.1,1.3-0.1,2,0.1
			c1.8,0.9,3.8-0.1,5.4,0.7c2.2,1.1,3.6-1.3,5.5-0.9c0.2,0,0.5-0.3,0.8-0.4c1.1-0.1,2.2-0.3,3,0.8c0.6,0.8,1.6,1.2,2.6,0.9
			c2.7-0.7,5.3,1.6,8,0.1c0.1-0.1,0.6,0.1,0.7,0.3c0.7,0.9,1.7,0.7,2.7,0.8c2.3,0,4.5-0.2,6.7,0c1.8,0.3,3.6-0.5,4.6-2.1
			c0.3-0.3,0.5-0.6,0.8-0.8c0.7-0.7,1.5-1.7,2.4-1.1c1.2,0.8,3.1,0.6,3.7,2.3c0.5,1.5,1.7,2.8,1.3,4.6c0,0.4,0.2,0.9,0.5,1.1
			c1.6,0.7,2.9,1.5,3.2,3.4c2.4,1.6,3.6,4.1,5.4,6.2c1.8,2.1,3.4,4.5,3.2,7.7c-0.2,2.9-0.3,2.6,2.7,2.6c9.8,0,19.6,0,29.3,0
			c0.9,0,2-0.1,2.5,0.4c1,1,2.1,0.8,3.3,0.8c6.6,0,13.3,0,20,0c2.2,0,4.2-0.1,5.3,2.3c0.2,0.5,0.8,0.8,1.2,1.3l21.4,21.2l38,37.7
			c2,2,3.4,2.2,5.9,0.9c0.4-0.2,0.9-0.4,1.3-0.4c3.1-0.6,6.2-1.6,9.4-1.2c0.4,0,0.7-0.2,1.1-0.3c2.7,0,5.4-0.1,8.1-0.1
			c1.3,0,2.5,0.3,3.7,0.3c1.2,0,2.2-1,2.2-2.2c0.2-1.9,0.2-3.9,0-5.8c-0.3-2.1,1.3-3.9,0.4-6c-0.1-0.1-0.1-0.4,0-0.5
			c1-0.9,1.6-2.3,3.1-2.4c0.7,0,1.3-0.4,1.7-1c0.6-0.8,1.2-1.7,1.7-2.6c0.7-1.7,2.3-2.2,3.7-3.1c1-0.5,2.1-0.4,3.1,0.1
			c0.8,0.2,1.5,0.2,2.3,0.1c0.7,0.1,1.4-0.5,1.4-1.2c0-0.1,0-0.2,0-0.3c0-0.7-0.2-1.5-0.5-2.2c-0.6-1.2-1.5-2.2-2.1-3.4
			c-0.5-0.8-0.9-1.6-1.2-2.5c-0.1-0.6,0-1.3,0.1-1.9c0.5,0,1.1,0.1,1.6,0.2c0.6,0.3,1.2,0.6,1.7,1.1c1.7,1.4,3.3,2.9,5,4.4
			c1.2,1,1.8,0.9,2.3-0.6c0.2-0.6,0.1-1.3-0.1-1.8c-1.3-2.2-2.8-4.3-4.1-6.5c-0.3-0.7-0.5-1.4-0.6-2.1c0-0.1,0.6-0.5,0.8-0.4
			c1.3,0.7,2.6,1.6,3.9,2.5c1.8,1.4,3.5,3,5.2,4.6c0.5,0.5,1.1,1,1.7,1.4c0.5,0.2,1.1,0.1,1.6-0.2c0.2-0.1,0.2-0.9,0-1.3
			c-0.3-0.9-0.8-1.7-1.3-2.5c-1.1-1.3-2-2.6-3-4c-1-1.4-1.9-2.9-2.6-4.5c-0.1-0.3-0.2-0.8-0.1-0.9c0.4-0.2,1-0.4,1.2-0.2
			c1.3,0.9,2.5,1.8,3.6,2.9c1.7,1.9,4.1,2.8,6,4.4c0.6,0.4,1.2,0.6,1.9,0.8c0.8,0.3,1.2-0.1,1-0.9c-0.1-0.4-0.2-0.7-0.4-1
			c-1.5-1.5-2.5-3.3-3.2-5.2c0-0.3-0.2-0.6-0.4-0.8c-1.4-0.9-1.8-2.4-2.5-3.8c-0.1-0.2-0.2-0.7,0-0.9s0.8-0.5,1-0.4
			c1.4,1,2.7,2,3.9,3.1c0.7,0.6,1.2,1.4,2.4,1.5c0.6,0.2,1.2,0.5,1.6,1c1.7,1.7,1.9,1.7,3-0.5c0.1-0.2,0.1-0.4,0.2-0.5
			c2-1.5,2-3.8,2.1-6c0-2.1,1-4,2.8-5.1c2.1-1.3,4.3-1.8,6.5-0.3c1.3,0.8,2.7,1.3,4.1,0.5c1.4-0.7,2.9-1,4.5-0.8
			c1.8,0,3.5,0.1,5.3,0c0.6,0,1.6-0.4,1.7-0.7c0.6-2,2.6-2.3,4-3s3.1-0.4,4.6-0.2c0.6,0.1,1.1,1.2,1.6,1.9c0.7,1,1.1,1.2,2,0.4
			c1.9-1.6,3.8-3.3,5.6-5c0.3-0.3,0.6-0.5,0.8-0.8c1-1.3,0.5-2.1-1.1-2.5c-1.8-0.4-3.6-1.1-5.3-1.9c-1.1-0.6-2.5-0.7-3.6-0.2
			c-2.3,1.1-4.6,2.3-6.7,3.7c-1.2,0.8-2.8,1-4.2,0.5c-2-0.7-4-1.6-5.9-2.6c-0.6-0.3-1.2-0.5-1.8-0.7c-2.2-0.5-4.2-1.1-5.3-3.4
			c-0.7-1.5-1.7-2.9-2.5-4.4c-0.5-1,0-2.1,1.3-3.2c0.6-0.6,1.6-0.7,2.3-0.1c2.7,1.5,5.5,2.9,8.3,4.3c0.4,0.2,0.9,0.5,1.3,0.4
			c2.4-0.7,4.6-2,6.4-3.7c0.3-0.3,0.4-0.9,0-1.2c-0.2-0.2-0.4-0.3-0.6-0.3c-1.7,0.1-2.3-1.3-3.3-2.1c-0.4-0.3-0.4-0.6-0.1-1.2
			c1.3-2.5,3.9-3.2,6.1-4.3c1.7-0.7,3.5-1.4,5.3-1.9c0.9-0.3,1-1.1,1-1.9c-0.1-1-0.8-0.9-1.5-0.9c-0.5,0-1,0-1.5,0
			c-1.6,0-3.2,0.2-4.6-1.1c-1.1-0.7-2.3-1.3-3.5-1.8c-2.7-1.4-5.3-2.8-8.1-4.1c-2.4-1.1-4.4-3.1-7.1-3.4c-3.2-0.3-4.3-2.7-5.3-5
			c-0.5-1.1-0.7-1.6-1.9-1.5c-0.7,0.1-1.4,0-2,0L271.5,90.4z M447.2,115.8c0.2,1.4,0.2,1.4,1.8,1.5c1.8,0,3.3,1.3,3.5,3.1
			c0.2,0.6,0.5,1.3,0.6,1.9c0.1,0.8,0.5,0.7,0.9,0.3c1.3-1.7,3.2-1.4,4.8-0.9c1.8,0.7,3.5,1.6,5.1,2.6c0.5,0.3,0.6,0.8,1.1-0.1
			c0.8-1.4,1.9-2.7,3.1-3.7c1.5-1.2,3.5-1.8,4.8-3.1c1.4-1.4,3.1-2.4,5-2.9c0.5-0.2,1-0.6,1.3-1.1c1.2-1.4,2.9-2.1,4.5-3
			c2.5-1.3,5.6-1.2,7.6-3.7c0.5-0.6,2.3-0.1,3.3-0.5s1.7-1.7,2.8-2.2c1.5-0.7,2-1,2.1-2.5c0.1-1.6,0.2-3.2,0.5-4.8
			c0.8-3.2,1.2-6.6,1.1-9.9c-0.3-3.4-1.1-6.7-2.3-9.9c-0.6-1.9-1.5-4.4-4.5-3.2c-0.1,0-0.2,0-0.3-0.1c-0.7-0.5-1-0.2-1,0.6
			c0,1.3-0.1,2.5,0,3.8s-0.4,2.5-0.1,3.9c0.5,2.1-1.3,3.8-1.5,5.9c-0.1,0.4-0.4,0.7-0.8,0.8c-2.6,0.6-5.2,2.3-8,0.7
			c-0.8-0.5-1.1-0.2-1.8,0.2c-2.1,1.6-3.3,4.1-3.1,6.7c0.1,1.1-0.3,2.1-1.1,2.8c-3,3.1-6.7,5.1-10.1,7.5c-0.8,0.5-2.3,0.4-3.3,0.1
			c-1.6-0.5-3.1-1.3-4.6-2.2c-0.8-0.5-1.2-0.4-1.7,0.1c-1.8,1.8-3.9,1.5-5.8,0.5c-1-0.5-0.9-0.1-0.9,0.6c0,2,0,4.1,0,6.1
			c0,1.6-0.6,2.5-2.1,2.6S447,115,447.2,115.8L447.2,115.8z M357.4,19.8c0,2.5,0,5,0,7.6c0,1.9,0.3,2.2,2,1.4
			c5.6-2.6,11.3-5.2,16.9-7.9c0.4-0.2,0.6-0.6,0.9-1c-0.3-0.3-0.5-0.5-0.9-0.7c-5.7-2.7-11.4-5.4-17.1-8.1c-1.4-0.7-1.8-0.4-1.9,1.3
			C357.4,15,357.4,17.4,357.4,19.8z M482.5,57.4l0.1-0.3c0.7,0,1.4,0,2,0c0.3,0,0.5-0.2,0.6-0.5c0-0.2-0.3-0.6-0.4-0.6
			c-1.4,0.1-2-0.5-2.7-1.7c-0.8-1.2-1.7-2.4-2.7-3.4c-1.2-1.5-2.5-2.4-4.5-2c-0.7,0.1-1.3,0.1-2-0.1c-0.6-0.2-0.8-0.2-1.2,0.4
			c-0.8,1.5-2.5,2.3-4.2,2c-0.6-0.1-1.2,0-1.8,0c-1.1-0.1-1.5,0.3-1.6,1.5c-0.1,2-0.3,2-2.4,2c-2.3,0.1-4.6-0.4-6.7,1.1
			c-0.4,0.2-0.8,0.3-1.3,0.3c0.3,0.6,0.5,1.3,1,1.7c0.6,0.3,1.3,0.4,1.9,0.2c1.2-0.8,2.7-1.1,4.1-1c0.4,0,0.7-0.1,1-0.4
			c0.8-0.9,1.8-0.7,2.7-0.7c0.8,0,1.7,0.3,2.3-0.1c2.3-1.2,3.9-0.2,5.4,1.5c0.8,0.9,1.3,0.7,2-0.1c1.4-1.5,3.7-1.8,5.5-0.8
			C480.6,56.9,481.6,57.2,482.5,57.4z M420.2,149.2c0-0.6,0-1.2,0-1.7c-0.1-2-1.6-3.6-3.5-3.9c-2.5-0.3-4.8,0.8-5.7,2.6
			c-0.9,2.1-0.4,4.4,1.2,6c0.4,0.3,0.7,0.6,1,1c0.5,0.7,1.4,1.1,2.3,1C418.4,154.1,420.2,152.2,420.2,149.2L420.2,149.2z
			 M369.5,183.2c0.3,1.2,0.3,2.6,0.9,3.6c0.5,0.7,1.8,0.8,2.8,1.2c0.2,0.1,0.4,0.1,0.5,0.2c1,0.6,2,0.3,3-0.2c3-1.4,3.1-6.4,0.8-9.1
			c-0.2-0.2-0.5-0.2-0.8-0.3C372.9,176.8,369.7,178.9,369.5,183.2L369.5,183.2z M341.5,21c0,3.2,3.2,6,6,5.2c1.8-0.5,3.2-2.1,3.3-4
			c0.3-2-0.2-4.1-1.5-5.6c-0.1-0.2-0.5-0.2-0.8-0.3C344.7,14.7,341.5,16.8,341.5,21L341.5,21z M388.5,21c0,3.4,3.4,6.1,6.3,5.1
			c1.7-0.6,2.9-2.1,3.1-3.8c0.3-2-0.2-4.1-1.5-5.6c-0.1-0.2-0.5-0.2-0.8-0.3C391.6,14.6,388.5,16.8,388.5,21L388.5,21z M14.1,122.5
			c0,3.2,3.2,6,6,5.2c1.8-0.5,3.2-2.1,3.3-4c0.3-2-0.2-4.1-1.5-5.6c-0.1-0.2-0.5-0.2-0.8-0.3C17.2,116.2,14.1,118.3,14.1,122.5z
			 M74.1,124.8c-0.2-0.7-0.4-1.3-0.5-2c-0.2-1.7-1.5-3-3.2-3.2c-1.7-0.4-3.6,0.1-4.8,1.5c-1.3,1.3-1.2,3-1.1,4.6
			c0.2,2.9,3.9,5,6.6,4C73.3,128.9,73.7,127.1,74.1,124.8L74.1,124.8z"/>
		<path class="st0" d="M369.7,0c0,1,0,2,0,2.9c0,0.8,0.5,2.3-1.4,1.4c-0.1-0.1-0.6,0.4-0.9,0.7c-0.4,0.6-0.6,1.2-1,1.7
			s-0.4,2.1-1.4,1.6s0.4-1.4,0.7-2.2c0.2-0.5,0.6-1,0.8-1.5c0.1-0.3,0.1-0.7,0-1c-0.6-1.3-0.6-1.3,0.3-1.9s1.5-1.1,2.2-1.7H369.7z"
			/>
		<path class="st0" d="M353.2,47.8c5.1,0,10.2,0,15.2,0c2.3,0,2.9,0.7,2.5,2.8c-0.3,1.3-0.7,2.6-1.2,3.8c-1.4,2.8-6.4,3.7-8.6,1.8
			c-0.5-0.6-0.7-1.3-0.6-2.1c-0.2-3.4-0.1-3.4-3.7-3.4c-4.5,0-9,0-13.5,0c-2.9,0-4.2,1-5.1,3.7c-1.2,3.4-2.3,6.8-3.5,10.3
			c-1.3,3.8-0.6,4.7,3.4,4.7h18.2c0.5,0,1,0,1.5,0c0.9,0,2-0.3,2.6,0.8c0.4,1.3,0.2,2.7-0.6,3.8c-1,1.2-2.5,1.9-4.1,1.8
			c-10.1,0-20.1,0-30.2,0c-2.4,0-3.2-1.1-2.5-3.4c1.1-3.2,2.4-6.4,3.3-9.7c0.4-1.3,0.9-2.2,2.1-2.4c1.8-0.2,2.3-1.4,2.8-2.9
			c0.5-1.7,1.1-3.4,1.7-5.1c0.1-0.6,0.3-1.1,0.6-1.6c1.1-1.7,2.4-3.1,4.9-3C343.2,48,348.2,47.8,353.2,47.8z"/>
		<path class="st0" d="M175.2,47.8c5.1,0,10.2,0,15.3,0c2.5,0,3.1,0.9,2.5,3.2c-0.3,1.1-0.6,2.2-1.1,3.3c-1.2,2.8-6.2,3.8-8.6,2.1
			c-0.8-0.5-0.7-1.3-0.7-2.1c-0.1-3.5-0.1-3.6-3.8-3.6c-4.4,0-8.8,0-13.2,0c-3.1,0-4.3,0.9-5.3,3.9c-1.2,3.7-2.5,7.4-3.7,11.1
			c-0.8,2.5-0.1,3.7,2.6,3.7c6.6,0,13.1,0,19.7,0h2c0.8-0.1,1.6,0.5,1.7,1.4c0,0.1,0,0.1,0,0.2c0.2,2.4-1.5,4.5-3.9,4.8
			c-0.5,0-1,0-1.5,0h-29c-0.5,0-1,0-1.5,0c-0.7,0-1.1-0.3-1.1-1c0-2-0.2-4,0.6-6c0.9-2,1.6-4.1,2.2-6.2c0.1-1.2,1-2.1,2.2-2.3
			c1.8-0.3,2.3-1.4,2.7-2.9c0.5-1.7,1.1-3.4,1.8-5.1c0.3-0.9,0.8-1.7,1.3-2.5c0.9-1.4,2.6-2.2,4.2-2C165.4,48,170.3,47.8,175.2,47.8
			z"/>
		<path class="st0" d="M227.1,56c2,0,4.1,0,6.1,0s2.1,0.4,1.5,2.2c-0.5,1-0.8,2.1-1,3.3c-0.1,1.7-2,1.9-2.3,3
			c-0.3,1.1,0.3,2.4,0.1,3.6c-0.3,1.6-1,2-2.7,2c-1.2,0-2.8,0.1-3.6-0.5c-0.9-0.9,0.4-2.2,0.7-3.3c0.6-2.2,0.4-2.5-1.8-2.6
			c-1,0-1.9,0-2.9,0c-1.8,0-2.3,0.4-3,2.1c-0.3,0.8-0.5,1.6-0.8,2.4c-0.5,1.6-2.3,2.4-3.8,1.8c-0.1,0-0.3-0.1-0.4-0.2
			c-0.4-0.3-0.7-0.8-0.6-1.3c0.5-1.8,1.2-3.6,1.8-5.4c0.1-0.4,0.5-1.1,0.8-1.1c2.2,0,2-1.9,2.4-3.1c1.1-2.6,1.2-2.8,3.9-2.9
			C223.4,56,225.3,56,227.1,56z M224.3,61.8L224.3,61.8c0.9,0.1,1.8,0.1,2.6,0c0.6-0.1,1.3-0.3,1.9-0.6c0.9-0.3,0.7-1.1,0.5-1.7
			c-0.1-0.3-0.7-0.6-1.1-0.6c-1.9-0.1-3.9-0.1-5.8,0c-0.6,0.1-1.1,0.3-1.5,0.7c-0.4,0.3-0.8,0.9-0.7,1.1c0.2,0.5,0.7,0.8,1.2,1
			C222.4,61.9,223.3,61.9,224.3,61.8z"/>
		<path class="st0" d="M204.1,56c2.2,0,4.5,0,6.7,0c2.1,0,2.2,0.4,1.7,2.4c-0.2,1-0.4,2-0.6,3c1.8,0.8,0.6,2.1,0.3,3.1
			c-0.4,1.5-0.9,2.9-1.6,4.2c-0.9,1.4-2.7,1.8-4,0.9c0,0-0.1-0.1-0.1-0.1c-0.3-0.3-0.3-0.8-0.3-1.2c0.2-1.1,0.7-2.2,0.9-3.3
			c0.2-0.8,0-1.5-1.2-1.5c-3.1,0-6.2,0-9.4,0c-1.1,0-2.1,0.8-2.3,1.9c-0.2,0.8-0.4,1.6-0.7,2.4c-0.4,0.6-0.8,1.2-1.4,1.7
			c-0.4,0.4-0.9,0.7-1.5,0.1s-0.4-0.9-0.2-1.5c1.1-3.2,2.1-6.5,3.2-9.7c0.6-1.8,1.4-2.4,3.4-2.4C199.4,56,201.8,56,204.1,56z
			 M200.1,61.8L200.1,61.8c1.4,0.1,2.7,0.1,4.1,0c1.1-0.1,1.3-1,1.2-2s-0.8-0.9-1.5-0.9c-1.7,0-3.5,0-5.2,0c-0.9-0.1-1.7,0.3-2.2,1
			c-0.3,0.4-0.4,0.8-0.4,1.3c0.1,0.3,0.7,0.5,1.1,0.6C198.2,61.9,199.2,61.8,200.1,61.8L200.1,61.8z"/>
		<path class="st0" d="M315.5,56c2.3,0,4.7,0,7,0c1.9,0,2,0.4,1.5,2.3c-0.3,1-0.4,2-0.6,3c1.9,1.1,0.5,2.4,0.1,3.6s-0.9,2.5-1.3,3.7
			c-0.2,0.8-0.8,1.3-1.6,1.4c-2.7,0.3-3.3-0.4-2.5-2.9c0.1-0.4,0.4-0.7,0.5-1c0.4-1.9,0-2.4-1.9-2.4c-2.7,0-5.5,0-8.2,0
			c-1.3-0.1-2.5,0.7-2.8,2c-0.2,0.8-0.4,1.6-0.8,2.4c-0.4,0.6-0.9,1.2-1.5,1.6c-0.5,0.4-1.1,0.3-1.5-0.2c-0.2-0.3-0.3-0.6-0.2-0.9
			c1.1-3.5,2.3-7,3.5-10.5c0.4-1.3,1.7-2.2,3.1-2C310.8,56,313.2,56,315.5,56z M311.9,61.8L311.9,61.8c1.3,0.1,2.5,0.1,3.8,0
			c1.1-0.1,1.3-1,1.3-1.9s-0.8-0.9-1.4-0.9c-1.8,0-3.7,0-5.5,0c-1,0-1.9,0.6-2.3,1.4c-0.3,0.4-0.2,1,0.2,1.3
			c0.1,0.1,0.3,0.2,0.5,0.2C309.6,61.9,310.7,61.8,311.9,61.8L311.9,61.8z"/>
		<path class="st0" d="M295.2,56c2,0,3.9,0,5.9,0c1.1,0,1.4,0.4,1.1,1.4c-0.2,0.7-0.6,1.4-0.8,2.2s-0.5,1.6-0.2,1.9
			c1.5,1.6,0.1,3-0.2,4.5c-0.2,1-0.6,2-1.2,2.9c-0.4,0.5-0.9,0.9-1.6,1c-2.7,0.4-3.3-0.4-2.4-2.9c0.7-2.1,1.5-4.1,2.2-6.2
			c0.5-1.4,0-1.9-1.5-1.9c-2,0-3.9,0-5.9,0c-2.7,0-3.3,0.5-4.2,3c-0.6,1.9-1.2,3.8-1.8,5.7c-0.8,2.3-1.6,2.8-3.9,2.4
			c-1-0.2-1.3-0.7-1-1.8c0.9-2.7,1.7-5.4,2.6-8.1c0.5-1.5,1.2-2.6,3.1-2.3c0.5,0.1,1.4-0.1,1.6-0.4c0.7-1.7,2.2-1.3,3.5-1.3
			C292,56,293.6,56,295.2,56L295.2,56z"/>
		<path class="st0" d="M397.6,58.9H395c-2.4,0-3.3,0.6-4.1,2.8c-0.7,2-1.2,4-1.9,6c-0.7,2.2-1.5,2.6-3.7,2.3
			c-1.3-0.2-1.5-0.6-1.1-1.9c0.8-2.6,1.7-5.2,2.5-7.8c0.5-1.6,1.2-2.8,3.3-2.5c0.4,0.1,1.2,0,1.4-0.3c1-2,2.7-1.4,4.3-1.4
			c3.1,0,6.3,0,9.4,0c1.8,0,1.9,0.2,1.4,1.8c-0.2,0.6-0.5,1.2-0.6,1.9s-0.1,1.3-0.2,2s1.3,0.6,0.7,1.7c-0.9,1.8-1.3,4-2.2,5.8
			c-0.4,1-3.1,1.1-3.9,0.2c-0.2-0.4-0.3-0.8-0.2-1.2c0.7-2.3,1.5-4.5,2.2-6.8c0.2-0.5,0.4-1.1,0.4-1.6c-0.1-0.4-0.4-0.8-0.8-0.9
			C400.4,58.9,399,59,397.6,58.9L397.6,58.9z"/>
		<path class="st0" d="M47,122.1c0-5.4,0-10.9,0-16.3c0-1.8,0.8-3.2,1.9-3.1s1.7,1.4,1.7,3c0,11,0,21.9,0,32.9
			c0,1.8-0.8,3.2-1.8,3.1s-1.7-1.4-1.7-3C46.9,133.2,47,127.6,47,122.1z"/>
		<path class="st0" d="M259.1,70c-2.4,0-4.9,0-7.3,0c-2.3,0-2.5-0.3-1.8-2.5c0.4-1.2,0.8-2.3,1.2-3.5c0.2-0.4,0.3-1.1,0.6-1.2
			c2.1-0.8,2.5-2.7,3-4.5c0.4-1.6,1.9-2.6,3.5-2.3c1.4,0.1,1.7,0.5,1.3,2c-0.9,2.8-1.8,5.6-2.7,8.4c-0.4,1.1-0.1,1.8,1,1.8
			c2.1,0.1,4.1,0.1,6.1,0c0.5,0,0.9-0.6,1.3-1s0.6-1,1-1.3c0.7-0.7,3.1-0.7,3.5-0.2s-0.2,3.3-1.1,3.8c-0.7,0.3-1.4,0.5-2.2,0.6
			C264,70,261.6,70,259.1,70z"/>
		<path class="st0" d="M41,122.7v9c0,0.6,0,1.2,0,1.8c0,0.9-0.6,1.6-1.5,1.6c-0.1,0-0.1,0-0.2,0c-0.9,0-1.6-0.7-1.6-1.6
			c0,0,0-0.1,0-0.1c0-0.6,0-1.2,0-1.8v-18c0-0.7,0-1.3,0-2c0.2-0.9,1.1-1.4,1.9-1.3c0.7,0.1,1.2,0.7,1.3,1.4c0,0.6,0,1.2,0,1.7
			L41,122.7z"/>
		<path class="st0" d="M250,60.9c0.1,2.1-0.8,4.1-2.4,5.5c-1.8,2-4.2,3.3-6.9,3.6c-3.2,0.3-6.3-1.9-5.3-6.3c0.8-3.5,5.1-7.9,9.8-7.7
			C248.2,56.1,250,57.8,250,60.9z M241.2,68.3c3.6-0.2,6.5-3,7-6.5c0.4-1.7-0.7-3.4-2.4-3.8c-0.1,0-0.2,0-0.2,0
			c-1-0.3-2.1-0.2-3.1,0.1c-2.2,1-4.1,2.3-5,4.8C236.4,65.9,238,68.3,241.2,68.3z"/>
		<path class="st0" d="M384.4,60.9c0.1,2.1-0.8,4.1-2.4,5.5c-1.8,2-4.2,3.3-6.9,3.6c-3.2,0.3-6.3-1.8-5.3-6.4
			c0.8-3.5,5.1-7.9,9.8-7.7C382.6,56.1,384.4,57.8,384.4,60.9z M382.7,60.6c-0.3-0.7-0.6-1.3-1.1-1.8c-1.2-1.2-3.1-1.5-4.6-0.8
			c-2.3,1-4.3,2.5-5.2,5c-0.8,1.9,0.1,4.1,2,4.9c0.5,0.2,1,0.3,1.5,0.3C378.4,68.4,382.5,65.3,382.7,60.6L382.7,60.6z"/>
		<path class="st0" d="M273.9,70c-0.4,0-0.8,0-1.2,0c-1.4-0.2-1.6-0.6-1.2-2s0.8-2.9,1.3-4.3c0.4-1.7,2-2.7,3.7-2.4
			c1.2,0.1,1.4,0.5,1.2,1.9c0,0.5,0,1.1,0.1,1.6c0.1,0.8,0,1.6-0.1,2.4C277,69.8,276.7,70,273.9,70z"/>
		<path class="st0" d="M276.3,59.5c-0.3-0.2-1.4-0.5-1.5-1c-0.1-1,0.5-1.9,1.4-2.1c0.4-0.1,0.7-0.3,1.1-0.4c1.4-0.2,2.6,0.3,2.6,1.1
			c-0.2,1.2-1.2,2.2-2.4,2.3C277.3,59.5,277.1,59.5,276.3,59.5z"/>
		<path class="st0" d="M377.3,7.5c-0.3,0.2-0.7,0.6-0.9,0.6c-1.2-0.5-1.5,0.3-2,1.1s-0.8,1.7-1.3,2.6c-0.1,0.2-0.5,0.2-0.7,0.4
			c-0.1-0.3-0.3-0.6-0.2-0.7c0.5-1,1.1-2,1.6-3.1c0.1-0.4,0.2-1.1,0-1.2c-1.6-1-0.2-1.4,0.4-1.8c2.3-1.6,2.3-1.5,2.8,1.2
			C377.1,6.7,377.1,7,377.3,7.5z"/>
		<path class="st0" d="M410.8,181.5c-1.2,1.7,0.3,2.2,1.7,2.8s2.5,1.4,4.1,1.2c0.1,0,0.4,0.4,0.3,0.5c-0.3,0.9-1.3,1.3-2.2,1
			c-0.1,0-0.3-0.1-0.4-0.2c-0.6-0.4-1.2-0.8-1.9-1.1c-0.8-0.3-1.6-1.3-2.6-0.6c0.4,0.9,0.8,1.7,1.2,2.5c0.2,0.3,0.5,0.6,0.9,0.7
			c0.5,0.2,0.4,0.4,0.2,0.8s-0.5,1.1-1.2,0.9c-0.3-0.1-0.7-0.5-0.7-0.7c0-1.3-0.5-2.5-1.5-3.3c-1.4-1.6-2.6-3.3-3.9-4.9
			c-0.4-0.4-0.5-0.8,0-1.1c0.9-0.6,1.9-1.1,3-1.4C410.4,178.2,410.9,178.8,410.8,181.5z M408.6,183.1c0.2-0.1,0.3-0.1,0.3-0.1
			c0.4-0.6,1.3-1.3,1.2-1.8c-0.1-0.7-0.9-1.9-1.4-1.9c-0.8,0-1.6,0.8-2.4,1.3L408.6,183.1z"/>
		<path class="st0" d="M245.3,61.7c0.1,2-2.2,4-3.9,3.6c-0.7-0.4-1.2-1.2-1.3-2c0.5-1.7,2.1-2.8,3.9-2.6
			C244.6,60.9,245,61.4,245.3,61.7z"/>
		<path class="st0" d="M379.7,61.7c0.1,2-2.3,4-3.9,3.6c-0.7-0.4-1.2-1.2-1.2-2c0.5-1.7,2.1-2.8,3.9-2.6
			C379,60.9,379.4,61.5,379.7,61.7z"/>
	</g>
</g>
</svg>
